<svg width="36" height="36" viewBox="0 0 36 36" fill="none" xmlns="http://www.w3.org/2000/svg">
<rect width="36" height="36" rx="12" fill="#28D9A0"/>
<path d="M9.24734 13.4691C9.08894 13.6274 9 13.8422 9 14.0662C9 14.2901 9.08894 14.5049 9.24734 14.6632L13.4692 18.885C13.7989 19.2148 14.3335 19.2148 14.6633 18.885C14.993 18.5553 14.993 18.0206 14.6633 17.6909L11.8828 14.9105L26.7317 14.9105C27.198 14.9105 27.576 14.5325 27.576 14.0662C27.576 13.5999 27.198 13.2218 26.7317 13.2218L11.8828 13.2218L14.6633 10.4414C14.993 10.1117 14.993 9.57712 14.6633 9.24731C14.3336 8.91756 13.7989 8.91756 13.4692 9.24731L9.24734 13.4691Z" fill="white"/>
<path d="M27.3287 21.9124L23.1069 17.6906C22.7772 17.3608 22.2425 17.3608 21.9128 17.6906C21.5831 18.0202 21.5831 18.5549 21.9128 18.8847L24.6932 21.6651L9.84438 21.6651C9.37807 21.6651 9.00002 22.0431 9.00002 22.5095C9.00002 22.9758 9.37807 23.3538 9.84438 23.3538L24.6932 23.3538L21.9128 26.1343C21.748 26.2991 21.6655 26.5152 21.6655 26.7313C21.6655 26.9474 21.748 27.1635 21.9129 27.3284C22.2425 27.6581 22.7772 27.6581 23.107 27.3284L27.3288 23.1065C27.6585 22.7768 27.6585 22.2421 27.3287 21.9124Z" fill="white"/>
</svg>
